<mxfile host="app.diagrams.net" modified="2020-12-03T09:13:19.658Z" agent="5.0 (Windows NT 10.0; Win64; x64) AppleWebKit/537.36 (KHTML, like Gecko) Chrome/87.0.4280.67 Safari/537.36 Edg/87.0.664.52" etag="IWde8_-9WX-hjKBxkyfJ" version="13.10.6" type="github">
  <diagram id="3jIPjxwIghJ3lt43WhiY" name="Page-1">
    <mxGraphModel dx="1422" dy="762" grid="0" gridSize="10" guides="1" tooltips="1" connect="1" arrows="1" fold="1" page="1" pageScale="1" pageWidth="827" pageHeight="583" math="0" shadow="0">
      <root>
        <mxCell id="0" />
        <mxCell id="1" parent="0" />
        <mxCell id="GBIwhLpVPNLdSdsLzRYB-8" style="edgeStyle=orthogonalEdgeStyle;rounded=0;orthogonalLoop=1;jettySize=auto;html=1;exitX=1;exitY=0.25;exitDx=0;exitDy=0;entryX=0.5;entryY=0;entryDx=0;entryDy=0;strokeWidth=3;strokeColor=#0000CC;fontStyle=3" parent="1" source="GBIwhLpVPNLdSdsLzRYB-1" target="GBIwhLpVPNLdSdsLzRYB-6" edge="1">
          <mxGeometry relative="1" as="geometry" />
        </mxCell>
        <mxCell id="GBIwhLpVPNLdSdsLzRYB-12" value="&lt;span&gt;&lt;span&gt;&lt;font color=&quot;#0000cc&quot;&gt;Message on API endpoint&lt;/font&gt;&lt;/span&gt;&lt;/span&gt;" style="edgeLabel;html=1;align=center;verticalAlign=middle;resizable=0;points=[];fontColor=#FFFF00;fontStyle=3" parent="GBIwhLpVPNLdSdsLzRYB-8" vertex="1" connectable="0">
          <mxGeometry x="0.0736" y="1" relative="1" as="geometry">
            <mxPoint x="-19.14" y="-11.49" as="offset" />
          </mxGeometry>
        </mxCell>
        <mxCell id="GBIwhLpVPNLdSdsLzRYB-1" value="&lt;font style=&quot;font-size: 20px&quot;&gt;&lt;span&gt;&lt;span&gt;Pub/Sub&lt;/span&gt;&lt;/span&gt;&lt;/font&gt;" style="whiteSpace=wrap;html=1;aspect=fixed;fontStyle=3" parent="1" vertex="1">
          <mxGeometry x="46" y="79.95999999999998" width="90" height="90" as="geometry" />
        </mxCell>
        <mxCell id="aw8iOOtFZ8egvgebAe6_-1" style="edgeStyle=orthogonalEdgeStyle;rounded=0;orthogonalLoop=1;jettySize=auto;html=1;exitX=0.5;exitY=0;exitDx=0;exitDy=0;exitPerimeter=0;entryX=0.5;entryY=0;entryDx=0;entryDy=0;fontStyle=3;fillColor=#e3c800;strokeColor=#FFFF00;strokeWidth=3;" edge="1" parent="1" source="GBIwhLpVPNLdSdsLzRYB-5" target="GBIwhLpVPNLdSdsLzRYB-1">
          <mxGeometry relative="1" as="geometry">
            <Array as="points">
              <mxPoint x="420" y="35.959999999999994" />
              <mxPoint x="91" y="35.959999999999994" />
            </Array>
          </mxGeometry>
        </mxCell>
        <mxCell id="aw8iOOtFZ8egvgebAe6_-2" value="&lt;font style=&quot;font-size: 13px ; background-color: rgb(255 , 255 , 255)&quot; color=&quot;#999900&quot;&gt;Message of type OBJECT_FINALIZE&lt;/font&gt;" style="edgeLabel;html=1;align=center;verticalAlign=middle;resizable=0;points=[];fontStyle=3;labelBackgroundColor=#ffffff;" vertex="1" connectable="0" parent="aw8iOOtFZ8egvgebAe6_-1">
          <mxGeometry x="-0.4612" y="-2" relative="1" as="geometry">
            <mxPoint x="-107.11000000000001" y="14.969999999999999" as="offset" />
          </mxGeometry>
        </mxCell>
        <mxCell id="aw8iOOtFZ8egvgebAe6_-3" style="edgeStyle=orthogonalEdgeStyle;rounded=0;orthogonalLoop=1;jettySize=auto;html=1;exitX=0.5;exitY=1;exitDx=0;exitDy=0;exitPerimeter=0;entryX=1;entryY=0.5;entryDx=0;entryDy=0;fillColor=#a0522d;strokeColor=#6D1F00;" edge="1" parent="1" source="GBIwhLpVPNLdSdsLzRYB-5" target="GBIwhLpVPNLdSdsLzRYB-26">
          <mxGeometry relative="1" as="geometry" />
        </mxCell>
        <mxCell id="GBIwhLpVPNLdSdsLzRYB-5" value="&lt;font style=&quot;font-size: 14px&quot;&gt;&lt;span&gt;&lt;span&gt;Cloud Storage&lt;/span&gt;&lt;/span&gt;&lt;/font&gt;" style="shape=cylinder3;whiteSpace=wrap;html=1;boundedLbl=1;backgroundOutline=1;size=15;fontStyle=3" parent="1" vertex="1">
          <mxGeometry x="390" y="89.95999999999998" width="60" height="80" as="geometry" />
        </mxCell>
        <mxCell id="GBIwhLpVPNLdSdsLzRYB-36" style="edgeStyle=orthogonalEdgeStyle;rounded=0;orthogonalLoop=1;jettySize=auto;html=1;exitX=0.5;exitY=1;exitDx=0;exitDy=0;entryX=0.5;entryY=0;entryDx=0;entryDy=0;strokeColor=#0000CC;strokeWidth=3;fontColor=#FFFF00;fontStyle=3" parent="1" source="GBIwhLpVPNLdSdsLzRYB-6" target="GBIwhLpVPNLdSdsLzRYB-26" edge="1">
          <mxGeometry relative="1" as="geometry" />
        </mxCell>
        <mxCell id="GBIwhLpVPNLdSdsLzRYB-6" value="&lt;font size=&quot;1&quot;&gt;&lt;span style=&quot;font-size: 14px&quot;&gt;&lt;span&gt;Message processing&lt;/span&gt;&lt;/span&gt;&lt;/font&gt;" style="whiteSpace=wrap;html=1;aspect=fixed;fontStyle=3" parent="1" vertex="1">
          <mxGeometry x="240" y="149.95999999999998" width="80" height="80" as="geometry" />
        </mxCell>
        <mxCell id="GBIwhLpVPNLdSdsLzRYB-31" style="edgeStyle=orthogonalEdgeStyle;rounded=0;orthogonalLoop=1;jettySize=auto;html=1;exitX=0;exitY=0.5;exitDx=0;exitDy=0;fillColor=#fa6800;entryX=1.024;entryY=0.675;entryDx=0;entryDy=0;entryPerimeter=0;strokeColor=#FF0000;strokeWidth=3;fontStyle=3" parent="1" source="GBIwhLpVPNLdSdsLzRYB-26" target="GBIwhLpVPNLdSdsLzRYB-1" edge="1">
          <mxGeometry relative="1" as="geometry">
            <mxPoint x="156" y="139.95999999999998" as="targetPoint" />
            <Array as="points">
              <mxPoint x="166" y="304.96" />
              <mxPoint x="166" y="140.95999999999998" />
            </Array>
          </mxGeometry>
        </mxCell>
        <mxCell id="GBIwhLpVPNLdSdsLzRYB-32" value="&lt;font color=&quot;#ff0000&quot;&gt;Negative &lt;br&gt;acknowledge&lt;/font&gt;" style="edgeLabel;html=1;align=center;verticalAlign=middle;resizable=0;points=[];fontStyle=3" parent="GBIwhLpVPNLdSdsLzRYB-31" vertex="1" connectable="0">
          <mxGeometry x="-0.1663" relative="1" as="geometry">
            <mxPoint x="39.96999999999999" y="-123.14999999999998" as="offset" />
          </mxGeometry>
        </mxCell>
        <mxCell id="GBIwhLpVPNLdSdsLzRYB-42" style="edgeStyle=orthogonalEdgeStyle;rounded=0;orthogonalLoop=1;jettySize=auto;html=1;exitX=0.5;exitY=1;exitDx=0;exitDy=0;entryX=0.5;entryY=0;entryDx=0;entryDy=0;strokeColor=#0000CC;strokeWidth=3;fontColor=#FFFF00;fontStyle=3" parent="1" source="GBIwhLpVPNLdSdsLzRYB-26" target="GBIwhLpVPNLdSdsLzRYB-41" edge="1">
          <mxGeometry relative="1" as="geometry" />
        </mxCell>
        <mxCell id="aw8iOOtFZ8egvgebAe6_-4" style="edgeStyle=orthogonalEdgeStyle;rounded=0;orthogonalLoop=1;jettySize=auto;html=1;exitX=1;exitY=0.5;exitDx=0;exitDy=0;entryX=0.5;entryY=1;entryDx=0;entryDy=0;entryPerimeter=0;fillColor=#fa6800;strokeColor=#C73500;" edge="1" parent="1" source="GBIwhLpVPNLdSdsLzRYB-26" target="GBIwhLpVPNLdSdsLzRYB-5">
          <mxGeometry relative="1" as="geometry" />
        </mxCell>
        <mxCell id="GBIwhLpVPNLdSdsLzRYB-26" value="&lt;font size=&quot;1&quot;&gt;&lt;span style=&quot;font-size: 12px&quot;&gt;&lt;span&gt;Fetching of a file&lt;/span&gt;&lt;/span&gt;&lt;/font&gt;" style="rhombus;whiteSpace=wrap;html=1;fontStyle=3" parent="1" vertex="1">
          <mxGeometry x="214.75" y="259.96" width="130.5" height="90" as="geometry" />
        </mxCell>
        <mxCell id="GBIwhLpVPNLdSdsLzRYB-53" style="edgeStyle=orthogonalEdgeStyle;rounded=0;orthogonalLoop=1;jettySize=auto;html=1;exitX=0.5;exitY=1;exitDx=0;exitDy=0;entryX=0.5;entryY=1;entryDx=0;entryDy=0;strokeWidth=3;fontColor=#FFFF00;strokeColor=#00FF00;fontStyle=3" parent="1" source="GBIwhLpVPNLdSdsLzRYB-41" target="GBIwhLpVPNLdSdsLzRYB-1" edge="1">
          <mxGeometry relative="1" as="geometry" />
        </mxCell>
        <mxCell id="GBIwhLpVPNLdSdsLzRYB-54" value="&lt;font color=&quot;#00ff00&quot; style=&quot;font-size: 13px&quot;&gt;&lt;span&gt;&lt;span&gt;Positive &lt;br&gt;acknowledge&amp;nbsp;&lt;/span&gt;&lt;/span&gt;&lt;/font&gt;" style="edgeLabel;html=1;align=center;verticalAlign=middle;resizable=0;points=[];fontColor=#FFFF00;fontStyle=3" parent="GBIwhLpVPNLdSdsLzRYB-53" vertex="1" connectable="0">
          <mxGeometry x="0.6528" y="-1" relative="1" as="geometry">
            <mxPoint x="64" y="198" as="offset" />
          </mxGeometry>
        </mxCell>
        <mxCell id="GBIwhLpVPNLdSdsLzRYB-41" value="&lt;font color=&quot;#000000&quot;&gt;&lt;span&gt;&lt;span&gt;Writing entities to BigQuery&lt;/span&gt;&lt;/span&gt;&lt;/font&gt;" style="rhombus;whiteSpace=wrap;html=1;fontColor=#FFFF00;fontStyle=3" parent="1" vertex="1">
          <mxGeometry x="215.5" y="369.96" width="129" height="100" as="geometry" />
        </mxCell>
        <mxCell id="GBIwhLpVPNLdSdsLzRYB-45" style="edgeStyle=orthogonalEdgeStyle;rounded=0;orthogonalLoop=1;jettySize=auto;html=1;exitX=0.5;exitY=0;exitDx=0;exitDy=0;entryX=0.5;entryY=0;entryDx=0;entryDy=0;strokeColor=#0000CC;strokeWidth=1;fontColor=#FFFF00;fontStyle=3" parent="1" source="GBIwhLpVPNLdSdsLzRYB-43" target="GBIwhLpVPNLdSdsLzRYB-44" edge="1">
          <mxGeometry relative="1" as="geometry" />
        </mxCell>
        <mxCell id="GBIwhLpVPNLdSdsLzRYB-43" value="&lt;font color=&quot;#000000&quot; size=&quot;1&quot;&gt;&lt;span&gt;&lt;span style=&quot;font-size: 11px&quot;&gt;Client Table&lt;/span&gt;&lt;/span&gt;&lt;/font&gt;" style="rounded=0;whiteSpace=wrap;html=1;fontColor=#FFFF00;fontStyle=3" parent="1" vertex="1">
          <mxGeometry x="366" y="459.90000000000003" width="80" height="60" as="geometry" />
        </mxCell>
        <mxCell id="GBIwhLpVPNLdSdsLzRYB-46" style="edgeStyle=orthogonalEdgeStyle;rounded=0;orthogonalLoop=1;jettySize=auto;html=1;exitX=0.5;exitY=0;exitDx=0;exitDy=0;entryX=0.5;entryY=0;entryDx=0;entryDy=0;strokeColor=#0000CC;strokeWidth=1;fontColor=#FFFF00;fontStyle=3" parent="1" source="GBIwhLpVPNLdSdsLzRYB-44" target="GBIwhLpVPNLdSdsLzRYB-43" edge="1">
          <mxGeometry relative="1" as="geometry" />
        </mxCell>
        <mxCell id="GBIwhLpVPNLdSdsLzRYB-44" value="&lt;font color=&quot;#000000&quot;&gt;&lt;span&gt;&lt;span&gt;&lt;font style=&quot;font-size: 11px&quot;&gt;ClientMainInfo Table&lt;/font&gt;&lt;/span&gt;&lt;/span&gt;&lt;br&gt;&lt;/font&gt;" style="rounded=0;whiteSpace=wrap;html=1;fontColor=#FFFF00;fontStyle=3" parent="1" vertex="1">
          <mxGeometry x="476" y="459.90000000000003" width="80" height="60" as="geometry" />
        </mxCell>
        <mxCell id="GBIwhLpVPNLdSdsLzRYB-48" value="" style="endArrow=none;html=1;strokeColor=#0000CC;strokeWidth=1;fontColor=#FFFF00;fontStyle=3" parent="1" edge="1">
          <mxGeometry width="50" height="50" relative="1" as="geometry">
            <mxPoint x="345.25" y="419.96" as="sourcePoint" />
            <mxPoint x="466" y="419.96" as="targetPoint" />
          </mxGeometry>
        </mxCell>
        <mxCell id="GBIwhLpVPNLdSdsLzRYB-49" value="" style="endArrow=none;html=1;strokeColor=#0000CC;strokeWidth=1;fontColor=#FFFF00;fontStyle=3" parent="1" edge="1">
          <mxGeometry width="50" height="50" relative="1" as="geometry">
            <mxPoint x="466" y="439.96" as="sourcePoint" />
            <mxPoint x="466" y="419.96" as="targetPoint" />
          </mxGeometry>
        </mxCell>
        <mxCell id="GBIwhLpVPNLdSdsLzRYB-51" value="" style="endArrow=none;html=1;strokeWidth=3;fontColor=#FFFF00;entryX=0;entryY=0.5;entryDx=0;entryDy=0;fillColor=#fa6800;strokeColor=#FF0000;fontStyle=3" parent="1" target="GBIwhLpVPNLdSdsLzRYB-41" edge="1">
          <mxGeometry width="50" height="50" relative="1" as="geometry">
            <mxPoint x="166" y="419.96" as="sourcePoint" />
            <mxPoint x="196" y="399.96" as="targetPoint" />
          </mxGeometry>
        </mxCell>
        <mxCell id="GBIwhLpVPNLdSdsLzRYB-52" value="" style="endArrow=none;html=1;strokeColor=#FF0000;strokeWidth=3;fontColor=#FFFF00;fontStyle=3" parent="1" edge="1">
          <mxGeometry width="50" height="50" relative="1" as="geometry">
            <mxPoint x="166" y="419.96" as="sourcePoint" />
            <mxPoint x="166" y="299.96" as="targetPoint" />
          </mxGeometry>
        </mxCell>
      </root>
    </mxGraphModel>
  </diagram>
</mxfile>
